<svg width="41" height="40" viewBox="0 0 41 40" fill="none" xmlns="http://www.w3.org/2000/svg">
<g id="&#240;&#159;&#166;&#134; icon &#34;GitHub&#34;">
<path id="Vector" d="M13.879 32.2079C13.879 32.3734 13.6935 32.5057 13.4597 32.5057C13.1935 32.5305 13.0081 32.3982 13.0081 32.2079C13.0081 32.0425 13.1935 31.9102 13.4274 31.9102C13.6694 31.8854 13.879 32.0177 13.879 32.2079ZM11.371 31.8357C11.3145 32.0012 11.4758 32.1914 11.7177 32.241C11.9274 32.3237 12.1694 32.241 12.2177 32.0756C12.2661 31.9102 12.1129 31.7199 11.871 31.6455C11.6613 31.5876 11.4274 31.6703 11.371 31.8357ZM14.9355 31.6951C14.7016 31.753 14.5403 31.9102 14.5645 32.1004C14.5887 32.2658 14.7984 32.3734 15.0403 32.3155C15.2742 32.2576 15.4355 32.1004 15.4113 31.935C15.3871 31.7778 15.1694 31.6703 14.9355 31.6951ZM20.2419 0C9.05645 0 0.5 8.70954 0.5 20.1817C0.5 29.3544 6.12903 37.2037 14.1694 39.9663C15.2016 40.1565 15.5645 39.5031 15.5645 38.9655C15.5645 38.4527 15.5403 35.6239 15.5403 33.887C15.5403 33.887 9.89516 35.1277 8.70968 31.4222C8.70968 31.4222 7.79032 29.0153 6.46774 28.3949C6.46774 28.3949 4.62097 27.0964 6.59677 27.1212C6.59677 27.1212 8.60484 27.2866 9.70968 29.2551C11.4758 32.4478 14.4355 31.5297 15.5887 30.9838C15.7742 29.6604 16.2984 28.7423 16.879 28.1964C12.371 27.6836 7.82258 27.0136 7.82258 19.0568C7.82258 16.7822 8.43548 15.6408 9.72581 14.1851C9.51613 13.6474 8.83064 11.4308 9.93548 8.56893C11.621 8.03131 15.5 10.8021 15.5 10.8021C17.1129 10.339 18.8468 10.0991 20.5645 10.0991C22.2823 10.0991 24.0161 10.339 25.629 10.8021C25.629 10.8021 29.5081 8.02304 31.1935 8.56893C32.2984 11.439 31.6129 13.6474 31.4032 14.1851C32.6936 15.6491 33.4839 16.7905 33.4839 19.0568C33.4839 27.0385 28.7339 27.6753 24.2258 28.1964C24.9677 28.8498 25.5968 30.0905 25.5968 32.0342C25.5968 34.8216 25.5726 38.2707 25.5726 38.9489C25.5726 39.4866 25.9435 40.14 26.9677 39.9498C35.0323 37.2037 40.5 29.3544 40.5 20.1817C40.5 8.70954 31.4274 0 20.2419 0ZM8.33871 28.5273C8.23387 28.61 8.25806 28.8002 8.39516 28.9574C8.52419 29.0897 8.70968 29.1476 8.81452 29.0401C8.91935 28.9574 8.89516 28.7671 8.75806 28.61C8.62903 28.4776 8.44355 28.4197 8.33871 28.5273ZM7.46774 27.8573C7.41129 27.9648 7.49194 28.0972 7.65323 28.1799C7.78226 28.2626 7.94355 28.2378 8 28.122C8.05645 28.0145 7.97581 27.8821 7.81452 27.7994C7.65323 27.7498 7.52419 27.7746 7.46774 27.8573ZM10.0806 30.8018C9.95161 30.9094 10 31.1575 10.1855 31.3147C10.371 31.5049 10.6048 31.5297 10.7097 31.3974C10.8145 31.2898 10.7661 31.0417 10.6048 30.8846C10.4274 30.6943 10.1855 30.6695 10.0806 30.8018ZM9.16129 29.586C9.03226 29.6687 9.03226 29.8837 9.16129 30.074C9.29032 30.2642 9.50806 30.3469 9.6129 30.2642C9.74193 30.1567 9.74193 29.9416 9.6129 29.7514C9.5 29.5612 9.29032 29.4785 9.16129 29.586Z" fill="black"/>
</g>
</svg>
