<svg width="40" height="40" viewBox="0 0 40 40" fill="none" xmlns="http://www.w3.org/2000/svg">
<g id="&#240;&#159;&#166;&#134; icon &#34;google&#34;">
<path id="Vector" d="M39.6109 16.083H37.9999V16H20V24H31.3029C29.6539 28.657 25.223 32 20 32C13.373 32 7.99999 26.627 7.99999 20C7.99999 13.373 13.373 8 20 8C23.059 8 25.842 9.154 27.961 11.039L33.6179 5.382C30.0459 2.053 25.268 0 20 0C8.95498 0 0 8.955 0 20C0 31.045 8.95498 40 20 40C31.0449 40 39.9999 31.045 39.9999 20C39.9999 18.659 39.8619 17.35 39.6109 16.083Z" fill="#FFC107"/>
<path id="Vector_2" d="M2.30591 10.691L8.8769 15.51C10.6549 11.108 14.9609 8 19.9999 8C23.0589 8 25.8419 9.154 27.9609 11.039L33.6179 5.382C30.0459 2.053 25.2679 0 19.9999 0C12.3179 0 5.6559 4.337 2.30591 10.691Z" fill="#FF3D00"/>
<path id="Vector_3" d="M20 40C25.166 40 29.86 38.023 33.409 34.808L27.219 29.57C25.211 31.091 22.715 32 20 32C14.798 32 10.3811 28.683 8.71706 24.054L2.19507 29.079C5.50506 35.556 12.2271 40 20 40Z" fill="#4CAF50"/>
<path id="Vector_4" d="M39.611 16.083H38V16H20V24H31.303C30.511 26.237 29.072 28.166 27.216 29.571C27.217 29.57 27.218 29.57 27.219 29.569L33.409 34.807C32.971 35.205 40 30 40 20C40 18.659 39.862 17.35 39.611 16.083Z" fill="#1976D2"/>
</g>
</svg>
